Coordinates
version=1
nRows=10
nColumns=40
inDegrees=yes

Units are S.I. units (second, meters, Newtons, ...)
Angles are in degrees.

endheader
time	pelvis_tilt	pelvis_list	pelvis_rotation	pelvis_tx	pelvis_ty	pelvis_tz	hip_flexion_r	hip_adduction_r	hip_rotation_r	knee_angle_r	knee_angle_r_beta	ankle_angle_r	subtalar_angle_r	mtp_angle_r	hip_flexion_l	hip_adduction_l	hip_rotation_l	knee_angle_l	knee_angle_l_beta	ankle_angle_l	subtalar_angle_l	mtp_angle_l	lumbar_extension	lumbar_bending	lumbar_rotation	arm_flex_r	arm_add_r	arm_rot_r	elbow_flex_r	pro_sup_r	wrist_flex_r	wrist_dev_r	arm_flex_l	arm_add_l	arm_rot_l	elbow_flex_l	pro_sup_l	wrist_flex_l	wrist_dev_l
     22.82000000	     -2.61881672	     -5.01512065	      7.13989192	      1.13284159	      0.93782719	      0.48164714	      8.34018101	      3.29134666	    -21.54376907	     14.25435717	     14.25435717	     10.57011079	      4.22271915	     -2.11355517	     31.91960139	    -13.63928893	     -1.13304229	     60.48330198	     60.48330198	     10.15642661	    -17.99292468	     10.72742908	     -9.23663437	      7.06150759	      5.28188153	     23.18871918	    -20.60914397	     -0.95062070	     41.29834154	     44.72431204	      0.00000000	      0.00000000	      4.25370868	     -6.06482693	     -0.04852696	     40.70555804	     44.74149232	      0.00000000	      0.00000000
     22.83100000	     -2.74218710	     -4.96806167	      7.21934183	      1.13143565	      0.93759060	      0.48180465	      7.74875269	      3.37466898	    -21.57655929	     13.90683110	     13.90683110	     10.84784212	      4.41229425	     -2.37524269	     32.89222034	    -13.35584599	     -1.33837781	     57.82320052	     57.82320052	     10.04124805	    -17.95485672	     10.82729499	     -9.13771047	      7.02690157	      5.06556419	     25.41713097	    -20.55341848	     -1.16886402	     42.54859542	     44.75299929	      0.00000000	      0.00000000	      3.53066117	     -6.04249210	     -0.01889141	     36.82411410	     44.79971602	      0.00000000	      0.00000000
     22.84200000	     -2.78765457	     -4.95190755	      7.29834951	      1.13013109	      0.93738715	      0.48196286	      6.99376533	      3.56988151	    -21.42859075	     13.36703913	     13.36703913	     11.10696495	      4.39708740	     -2.42581517	     33.54725381	    -13.06254660	     -1.50555993	     54.82812314	     54.82812314	      9.84013961	    -17.89248666	     11.04948120	     -9.19117920	      7.04291481	      4.67545850	     27.60821907	    -20.34431520	     -1.45524127	     44.31315580	     44.73144967	      0.00000000	      0.00000000	      2.21077171	     -6.18620668	      0.00858453	     34.60843038	     44.80616471	      0.00000000	      0.00000000
     22.85300000	     -2.86958334	     -4.93639362	      7.31222693	      1.12888265	      0.93700506	      0.48215855	      6.27344189	      3.76538215	    -21.22730163	     12.80452332	     12.80452332	     11.30914115	      4.42107377	     -2.73999977	     34.00196716	    -12.79047472	     -1.77090755	     51.51318019	     51.51318019	      9.36223627	    -17.74647686	     10.76652586	     -9.16490019	      7.05141949	      5.04463319	     29.04095468	    -20.64254644	     -2.10831593	     46.64093013	     44.74545450	      0.00000000	      0.00000000	      2.26892075	     -5.85552730	     -0.35439065	     29.80013918	     44.96950161	      0.00000000	      0.00000000
     22.86400000	     -2.92361952	     -4.88733190	      7.35549454	      1.12766562	      0.93651240	      0.48220010	      5.53033259	      3.90879739	    -21.10766608	     12.27820944	     12.27820944	     11.59186035	      4.43949504	     -2.78090213	     34.30237466	    -12.38894545	     -1.90378470	     48.05495159	     48.05495159	      9.11197359	    -17.46355475	     11.30810827	     -9.22463524	      7.00324812	      4.85248915	     31.03569401	    -20.51931921	     -2.41188337	     48.20730253	     44.72497044	      0.00000000	      0.00000000	      0.87678381	     -6.02594659	     -0.39109894	     28.29066838	     44.97621560	      0.00000000	      0.00000000
     22.87500000	     -3.01214951	     -4.87905825	      7.35920518	      1.12653973	      0.93573886	      0.48223669	      4.80217150	      4.09875547	    -20.93965990	     11.70997505	     11.70997505	     11.94285818	      4.53084736	     -2.87474145	     34.51066443	    -12.02021835	     -2.02599028	     44.43925365	     44.43925365	      8.86559844	    -17.01425219	     11.83739159	     -9.22464525	      7.01371214	      4.75433805	     32.93732089	    -20.34381382	     -2.69005986	     49.77749705	     44.70093140	      0.00000000	      0.00000000	     -0.34200883	     -6.18890182	     -0.40386164	     26.66379264	     44.98247821	      0.00000000	      0.00000000
     22.88600000	     -3.08795215	     -4.92388425	      7.35801239	      1.12545388	      0.93475993	      0.48222413	      4.04621958	      4.35021775	    -20.78571075	     11.09693580	     11.09693580	     12.27014390	      4.67814495	     -2.98967487	     34.63366824	    -11.69995869	     -2.10927489	     40.74101029	     40.74101029	      8.62357698	    -16.32969449	     12.29125980	     -9.23094176	      7.06409067	      4.62140546	     34.72014785	    -20.12912815	     -2.98870504	     51.45394580	     44.67347828	      0.00000000	      0.00000000	     -1.50554602	     -6.36421813	     -0.41458144	     24.97338239	     44.99292919	      0.00000000	      0.00000000
     22.89700000	     -3.21142077	     -5.07615432	      7.37019772	      1.12444318	      0.93343169	      0.48207091	      3.28104642	      4.71894650	    -20.72506856	     10.34325610	     10.34325610	     12.46216908	      4.93517196	     -3.53078993	     34.76112687	    -11.45959615	     -2.13120843	     36.96930266	     36.96930266	      7.95840432	    -15.51098565	     11.55125086	     -9.18516965	      7.29123416	      5.15729715	     35.52698176	    -20.49819022	     -4.15119881	     54.83203372	     44.66994026	      0.00000000	      0.00000000	     -1.50081689	     -6.18595080	     -0.77081785	     21.22754121	     45.21534671	      0.00000000	      0.00000000
     22.90800000	     -3.32191359	     -5.15280231	      7.33695048	      1.12352073	      0.93203021	      0.48187665	      2.54799388	      4.98386657	    -20.54304702	      9.73951450	      9.73951450	     12.86079361	      5.10804561	     -3.64547210	     34.78622264	    -11.16255229	     -2.23535296	     33.23617192	     33.23617192	      7.76050861	    -14.29368498	     11.99971719	     -9.15192357	      7.37185179	      5.09433969	     37.19884857	    -20.32177238	     -4.38058450	     56.27750271	     44.64862300	      0.00000000	      0.00000000	     -2.88262302	     -6.44325637	     -0.88460900	     20.55530124	     45.23474140	      0.00000000	      0.00000000
     22.91900000	     -3.45970859	     -5.34957456	      7.33134100	      1.12269683	      0.93038890	      0.48155342	      1.73675820	      5.39880857	    -20.46614950	      8.90430185	      8.90430185	     13.15830332	      5.48779354	     -3.85198102	     34.86801547	    -10.98587949	     -2.36565978	     29.63828483	     29.63828483	      7.39944839	    -12.82531610	     11.95147328	     -9.08805326	      7.63583067	      4.89995572	     38.66286766	    -20.02258242	     -4.72225763	     58.42084920	     44.61995440	      0.00000000	      0.00000000	     -4.32338089	     -6.66206034	     -1.08324077	     20.01671674	     45.29223534	      0.00000000	      0.00000000
